<?xml version="1.0" encoding="UTF-8"?>
<svg xmlns="http://www.w3.org/2000/svg" xml:space="preserve" width="58px" height="58px" version="1.1" shape-rendering="geometricPrecision" text-rendering="geometricPrecision" image-rendering="optimizeQuality" fill-rule="evenodd" clip-rule="evenodd"
viewBox="0 0 63.471 63.471" xmlns:xlink="http://www.w3.org/1999/xlink">
  <circle fill="white" stroke="black" stroke-width="4" stroke-miterlimit="2.61313" cx="31.736" cy="31.736" r="29.547"/>
  <path fill="black" d="M27.526 14.779c0,-1.328 0.473,-2.459 1.431,-3.406 0.958,-0.946 2.101,-1.419 3.428,-1.419 1.304,0 2.424,0.462 3.336,1.397 0.913,0.935 1.362,2.077 1.362,3.428 0,1.339 -0.461,2.481 -1.385,3.44 -0.923,0.957 -2.043,1.431 -3.371,1.431 -1.338,0 -2.47,-0.474 -3.405,-1.431 -0.935,-0.959 -1.396,-2.101 -1.396,-3.44zm-3.878 38.738l0 -2.078 4.086 0 0 -22.855 -4.502 0 0.035 -2.078c2.504,-0.069 4.917,-0.173 7.248,-0.311 2.332,-0.139 4.595,-0.312 6.776,-0.52l0 25.764 4.294 0 0 2.078 -17.937 0z"/>
</svg>
