<?xml version="1.0" encoding="UTF-8"?>
<!DOCTYPE svg PUBLIC "-//W3C//DTD SVG 1.1//EN" "http://www.w3.org/Graphics/SVG/1.1/DTD/svg11.dtd">
<!-- Creator: CorelDRAW 2021 (64-Bit) -->
<svg xmlns="http://www.w3.org/2000/svg" xml:space="preserve" width="128px" height="128px" version="1.1" shape-rendering="geometricPrecision" text-rendering="geometricPrecision" image-rendering="optimizeQuality" fill-rule="evenodd" clip-rule="evenodd"
viewBox="0 0 128 128"
 xmlns:xlink="http://www.w3.org/1999/xlink"
 xmlns:xodm="http://www.corel.com/coreldraw/odm/2003">
 <g id="Layer_x0020_1">
  <metadata id="CorelCorpID_0Corel-Layer"/>
  <g id="_2462152894096">
   <g>
    <g>
     <path fill="black" fill-rule="nonzero" d="M62.221 53.343c-0.003,-1.104 0.889,-2.002 1.993,-2.006 1.105,-0.003 2.003,0.89 2.006,1.994l-3.999 0.012zm0.172 56.047l-0.172 -56.047 3.999 -0.012 0.172 56.047 -3.999 0.012zm3.999 -0.012c0.003,1.104 -0.889,2.003 -1.994,2.006 -1.104,0.003 -2.002,-0.889 -2.005,-1.994l3.999 -0.012z"/>
    </g>
    <g>
     <path fill="black" fill-rule="nonzero" d="M87.756 102.811c0.065,1.103 -0.775,2.05 -1.877,2.116 -1.103,0.066 -2.051,-0.774 -2.116,-1.877l3.993 -0.239zm-2.661 -44.471l2.661 44.471 -3.993 0.239 -2.66 -44.471 2.52 -2.05 1.472 1.811zm-3.992 0.239c-0.066,-1.103 0.774,-2.05 1.876,-2.116 1.103,-0.066 2.051,0.774 2.116,1.877l-3.992 0.239zm-16.359 -7.172l18.879 5.122 -1.048 3.861 -18.878 -5.123 -0.036 -3.85 1.083 -0.01zm-1.047 3.86c-1.066,-0.289 -1.696,-1.388 -1.407,-2.454 0.289,-1.066 1.388,-1.695 2.454,-1.406l-1.047 3.86zm-18.739 1.596l18.703 -5.446 1.119 3.84 -18.703 5.446 -2.556 -2.04 1.437 -1.8zm1.119 3.84c-1.06,0.308 -2.171,-0.301 -2.48,-1.361 -0.308,-1.06 0.301,-2.171 1.361,-2.479l1.119 3.84zm-5.221 42.282l2.665 -44.322 3.993 0.24 -2.666 44.322 -3.992 -0.24zm3.992 0.24c-0.065,1.103 -1.013,1.943 -2.116,1.877 -1.102,-0.066 -1.942,-1.014 -1.876,-2.117l3.992 0.24z"/>
    </g>
   </g>
   <g>
    <path fill="gray" fill-rule="nonzero" d="M43.735 100.439c-0.763,0.32 -1.643,-0.04 -1.963,-0.804 -0.32,-0.764 0.04,-1.644 0.804,-1.963l1.159 2.767zm41.323 -17.308l-41.323 17.308 -1.159 -2.767 41.323 -17.308 1.331 0.085 -0.172 2.682zm-1.159 -2.767c0.764,-0.32 1.643,0.04 1.963,0.804 0.32,0.764 -0.04,1.643 -0.804,1.963l-1.159 -2.767zm-37.63 -22.465l38.961 22.55 -1.503 2.596 -38.961 -22.549 1.503 -2.597zm-1.503 2.597c-0.717,-0.415 -0.961,-1.333 -0.547,-2.05 0.415,-0.717 1.333,-0.961 2.05,-0.547l-1.503 2.597zm-1.182 22.979c-0.765,-0.319 -1.126,-1.198 -0.807,-1.962 0.318,-0.764 1.197,-1.126 1.961,-0.807l-1.154 2.769zm40.683 16.965l-40.683 -16.965 1.154 -2.769 40.683 16.965 -1.154 2.769zm1.154 -2.769c0.765,0.319 1.126,1.197 0.807,1.962 -0.318,0.764 -1.197,1.125 -1.961,0.807l1.154 -2.769zm-40.482 -14.298c-0.708,0.429 -1.631,0.204 -2.061,-0.504 -0.429,-0.708 -0.203,-1.632 0.505,-2.061l1.556 2.565zm38.938 -23.631l-38.938 23.631 -1.556 -2.565 38.938 -23.631 1.556 2.565zm-1.556 -2.565c0.708,-0.43 1.631,-0.204 2.061,0.504 0.429,0.708 0.204,1.631 -0.505,2.061l-1.556 -2.565z"/>
   </g>
   <g>
    <path fill="white" d="M64.221 67.613c-6.689,-4.74 -11.289,-14.6 -11.289,-25.998 0,-9.234 3.019,-17.46 7.723,-22.771 1.094,-0.149 2.21,-0.228 3.345,-0.228 13.531,0 24.5,10.969 24.5,24.5 0,13.457 -10.85,24.378 -24.279,24.497z"/>
    <path fill="#CCCCCC" d="M64 67.616c-13.531,0 -24.5,-10.969 -24.5,-24.5 0,-12.538 9.419,-22.875 21.567,-24.324 -0.138,0.016 -0.275,0.034 -0.412,0.052 -4.704,5.311 -7.723,13.537 -7.723,22.771 0,11.398 4.6,21.258 11.289,25.998 8.162,-0.074 14.46,0.003 -0.221,0.003z"/>
    <path fill="#999999" d="M64.221 67.613c-4.208,-2.982 -7.588,-7.99 -9.518,-14.131 2.813,-0.55 6.099,-0.866 9.611,-0.866 10.065,0 18.281,2.595 18.773,5.857 -4.448,5.52 -11.24,9.072 -18.866,9.14z"/>
    <path fill="#333333" d="M64.221 67.613c-7.114,0 -14.02,-3.224 -18.688,-8.574 -0.009,-0.089 -0.016,-0.176 -0.016,-0.256 0,-2.261 3.709,-4.238 9.238,-5.311 1.696,5.308 4.836,10.868 9.466,14.141l0 0z"/>
    <circle fill="none" stroke="black" stroke-miterlimit="2.61313" cx="64" cy="43.116" r="24.5"/>
   </g>
   <g>
    <path fill="black" fill-rule="nonzero" d="M63.83 80.038c-0.547,-0.071 -0.933,-0.574 -0.861,-1.121 0.072,-0.548 0.575,-0.933 1.122,-0.861l-0.261 1.982zm21.54 2.835l-21.54 -2.835 0.261 -1.982 21.539 2.835 -0.26 1.982zm0.26 -1.982c0.548,0.071 0.933,0.574 0.861,1.121 -0.071,0.548 -0.574,0.933 -1.121,0.861l0.26 -1.982zm-21.258 -2.919c0.546,-0.084 1.057,0.29 1.141,0.836 0.084,0.546 -0.291,1.057 -0.836,1.141l-0.305 -1.977zm-21.408 3.291l21.408 -3.291 0.305 1.977 -21.408 3.291 -0.305 -1.977zm0.305 1.977c-0.546,0.083 -1.057,-0.291 -1.141,-0.837 -0.084,-0.546 0.29,-1.057 0.836,-1.14l0.305 1.977zm-0.448 17.042c-0.534,-0.143 -0.851,-0.691 -0.709,-1.225 0.143,-0.533 0.691,-0.85 1.225,-0.708l-0.516 1.933zm20.494 5.466l-20.494 -5.466 0.516 -1.933 20.493 5.466 -0.515 1.933zm0.515 -1.933c0.534,0.143 0.851,0.691 0.709,1.225 -0.142,0.533 -0.691,0.85 -1.224,0.708l0.515 -1.933zm21.362 -5.837c0.534,-0.142 1.082,0.175 1.224,0.709 0.143,0.533 -0.175,1.082 -0.708,1.224l-0.516 -1.933zm-21.877 5.837l21.877 -5.837 0.516 1.933 -21.878 5.837 -0.515 -1.933zm0.515 1.933c-0.533,0.142 -1.081,-0.175 -1.224,-0.708 -0.142,-0.534 0.175,-1.082 0.709,-1.225l0.515 1.933z"/>
   </g>
  </g>
  <rect fill="none" y="-0.001" width="128" height="128"/>
 </g>
</svg>
