<?xml version="1.0" encoding="UTF-8"?>
<!DOCTYPE svg PUBLIC "-//W3C//DTD SVG 1.1//EN" "http://www.w3.org/Graphics/SVG/1.1/DTD/svg11.dtd">
<!-- Creator: CorelDRAW 2021 (64-Bit) -->
<svg xmlns="http://www.w3.org/2000/svg" xml:space="preserve" width="128px" height="128px" version="1.1" shape-rendering="geometricPrecision" text-rendering="geometricPrecision" image-rendering="optimizeQuality" fill-rule="evenodd" clip-rule="evenodd"
viewBox="0 0 128 128"
 xmlns:xlink="http://www.w3.org/1999/xlink"
 xmlns:xodm="http://www.corel.com/coreldraw/odm/2003">
 <g id="Layer_x0020_1">
  <metadata id="CorelCorpID_0Corel-Layer"/>
  <rect fill="none" y="-0.001" width="128" height="128"/>
  <g id="_2462164928992">
   <g>
    <g>
     <path fill="black" fill-rule="nonzero" d="M42.067 45.437c-0.003,-1.104 0.89,-2.003 1.994,-2.006 1.104,-0.003 2.003,0.889 2.006,1.994l-4 0.012zm0.096 31.381l-0.096 -31.381 4 -0.012 0.096 31.38 -4 0.013zm4 -0.013c0.003,1.105 -0.889,2.003 -1.994,2.006 -1.104,0.004 -2.002,-0.889 -2.006,-1.993l4 -0.013z"/>
    </g>
    <g>
     <path fill="black" fill-rule="nonzero" d="M65.812 64.974c0.066,1.103 -0.775,2.05 -1.877,2.116 -1.103,0.066 -2.05,-0.774 -2.116,-1.877l3.993 -0.239zm-0.87 -14.54l0.87 14.54 -3.993 0.239 -0.87 -14.54 2.52 -2.05 1.473 1.811zm-3.993 0.239c-0.066,-1.103 0.775,-2.05 1.877,-2.116 1.103,-0.066 2.05,0.774 2.116,1.877l-3.993 0.239zm-16.358 -7.172l18.878 5.122 -1.047 3.86 -18.879 -5.122 -0.035 -3.85 1.083 -0.01zm-1.048 3.86c-1.066,-0.289 -1.695,-1.388 -1.406,-2.454 0.289,-1.066 1.388,-1.695 2.454,-1.406l-1.048 3.86zm-18.738 1.595l18.703 -5.445 1.118 3.84 -18.703 5.446 -2.556 -2.04 1.438 -1.801zm1.118 3.841c-1.06,0.308 -2.171,-0.301 -2.479,-1.361 -0.309,-1.06 0.3,-2.171 1.361,-2.48l1.118 3.841zm-5.221 42.282l2.665 -44.322 3.993 0.239 -2.665 44.323 -3.993 -0.24zm3.993 0.24c-0.066,1.103 -1.014,1.943 -2.117,1.877 -1.102,-0.066 -1.942,-1.014 -1.876,-2.117l3.993 0.24z"/>
    </g>
   </g>
   <g>
    <path fill="gray" fill-rule="nonzero" d="M23.582 92.533c-0.764,0.32 -1.644,-0.04 -1.963,-0.804 -0.32,-0.764 0.04,-1.644 0.804,-1.963l1.159 2.767zm15.956 -6.684l-15.956 6.684 -1.159 -2.767 15.956 -6.684 1.159 2.767zm-1.159 -2.767c0.764,-0.32 1.644,0.04 1.964,0.804 0.319,0.764 -0.041,1.644 -0.805,1.963l-1.159 -2.767zm18.994 -14.997c0.717,0.414 0.962,1.333 0.547,2.049 -0.415,0.717 -1.333,0.962 -2.05,0.547l1.503 -2.596zm-31.258 -18.092l31.258 18.092 -1.503 2.596 -31.258 -18.092 1.503 -2.596zm-1.503 2.596c-0.717,-0.414 -0.961,-1.332 -0.546,-2.049 0.414,-0.717 1.333,-0.962 2.049,-0.547l-1.503 2.596zm-1.182 22.979c-0.764,-0.318 -1.126,-1.197 -0.807,-1.961 0.319,-0.764 1.197,-1.126 1.962,-0.807l-1.155 2.768zm14.454 6.028l-14.454 -6.028 1.155 -2.768 14.454 6.027 -1.155 2.769zm1.155 -2.769c0.764,0.319 1.126,1.198 0.807,1.962 -0.319,0.764 -1.198,1.126 -1.962,0.807l1.155 -2.769zm-14.253 -3.36c-0.708,0.429 -1.632,0.204 -2.061,-0.504 -0.43,-0.709 -0.204,-1.632 0.504,-2.061l1.557 2.565zm38.938 -23.631l-38.938 23.631 -1.557 -2.565 38.938 -23.631 1.557 2.565zm-1.557 -2.565c0.708,-0.43 1.632,-0.204 2.061,0.504 0.43,0.708 0.204,1.631 -0.504,2.061l-1.557 -2.565z"/>
   </g>
   <g>
    <path fill="white" d="M44.067 59.706c-6.689,-4.739 -11.289,-14.599 -11.289,-25.997 0,-9.235 3.02,-17.461 7.724,-22.771 1.094,-0.15 2.21,-0.229 3.344,-0.229 13.531,0 24.5,10.969 24.5,24.5 0,13.457 -10.85,24.379 -24.279,24.497z"/>
    <path fill="#CCCCCC" d="M43.846 59.709c-13.53,0 -24.499,-10.969 -24.499,-24.5 0,-12.538 9.418,-22.874 21.566,-24.324 -0.137,0.016 -0.275,0.034 -0.411,0.053 -4.704,5.31 -7.724,13.536 -7.724,22.771 0,11.398 4.6,21.258 11.289,25.997 8.162,-0.073 14.46,0.003 -0.221,0.003z"/>
    <path fill="#999999" d="M44.067 59.706c-4.207,-2.981 -7.588,-7.989 -9.517,-14.13 2.812,-0.551 6.099,-0.867 9.611,-0.867 10.065,0 18.281,2.595 18.773,5.858 -4.448,5.52 -11.241,9.072 -18.867,9.139z"/>
    <path fill="#333333" d="M44.067 59.706c-7.113,0 -14.02,-3.223 -18.688,-8.573 -0.009,-0.089 -0.015,-0.176 -0.015,-0.256 0,-2.261 3.708,-4.238 9.238,-5.311 1.696,5.307 4.835,10.868 9.465,14.14z"/>
    <path fill="none" stroke="black" stroke-miterlimit="2.61313" d="M43.846 10.709c13.531,0 24.5,10.969 24.5,24.5 0,13.531 -10.969,24.5 -24.5,24.5 -13.53,0 -24.499,-10.969 -24.499,-24.5 0,-13.531 10.969,-24.5 24.499,-24.5z"/>
   </g>
   <g>
    <path fill="black" fill-rule="nonzero" d="M43.677 72.132c-0.548,-0.071 -0.933,-0.574 -0.861,-1.122 0.071,-0.547 0.574,-0.932 1.121,-0.86l-0.26 1.982zm8.082 1.064l-8.082 -1.064 0.26 -1.982 8.083 1.063 -0.261 1.983zm0.261 -1.983c0.547,0.072 0.932,0.575 0.861,1.122 -0.072,0.547 -0.575,0.933 -1.122,0.861l0.261 -1.983zm-7.801 -1.147c0.546,-0.084 1.057,0.29 1.14,0.836 0.084,0.546 -0.29,1.057 -0.836,1.14l-0.304 -1.976zm-21.408 3.291l21.408 -3.291 0.304 1.976 -21.408 3.291 -0.304 -1.976zm0.304 1.976c-0.546,0.084 -1.057,-0.29 -1.141,-0.836 -0.083,-0.546 0.291,-1.057 0.837,-1.14l0.304 1.976zm-0.448 17.043c-0.533,-0.143 -0.851,-0.691 -0.708,-1.225 0.142,-0.533 0.69,-0.85 1.224,-0.708l-0.516 1.933zm17.388 4.638l-17.388 -4.638 0.516 -1.933 17.388 4.638 -0.516 1.933zm0.516 -1.933c0.534,0.142 0.851,0.691 0.709,1.224 -0.143,0.534 -0.691,0.851 -1.225,0.709l0.516 -1.933z"/>
   </g>
  </g>
  <polygon fill="#E6E6E6" stroke="black" stroke-miterlimit="2.61313" points="64.41,74.06 86.774,96.423 71.833,111.364 50.675,110.158 49.469,89 "/>
  <path fill="#999999" stroke="black" stroke-miterlimit="2.61313" d="M94.527 70.322l-24.494 24.495 -3.714 -0.303 -0.303 -3.714 24.495 -24.494 -4.438 -4.438c-1.203,-1.202 -1.203,-3.171 0,-4.374l11.052 -11.051c1.203,-1.203 3.171,-1.203 4.374,0l12.891 12.891c1.203,1.203 1.203,3.171 0,4.374l-11.051 11.052c-1.203,1.203 -3.171,1.203 -4.374,0l-4.438 -4.438zm6.321 -17.172l6.835 6.836c0.533,0.533 0.533,1.405 0,1.939l-6.128 6.127c-0.533,0.534 -1.405,0.534 -1.939,0l-6.835 -6.835c-0.533,-0.533 -0.533,-1.406 0,-1.939l6.128 -6.128c0.533,-0.533 1.405,-0.533 1.939,0z"/>
 </g>
</svg>
