<svg xmlns="http://www.w3.org/2000/svg"
     xml:space="preserve"
     width="128px" height="128px"
     version="1.1" shape-rendering="geometricPrecision"
viewBox="0 0 128 128">
  <path fill="black" stroke-width="3" stroke="white" d="M108.073 56.435c0.442,0 0.884,-0.169 1.222,-0.506 0.337,-0.338 0.506,-0.78 0.506,-1.222l0 -28.667c-0.002,-0.439 -0.172,-0.878 -0.507,-1.213 -0.675,-0.675 -1.769,-0.675 -2.444,0l-8.402 8.402c-8.439,-9.268 -20.601,-15.084 -34.123,-15.084 -22.017,0 -40.593,15.385 -45.034,36.049 -0.318,1.48 0.607,2.238 1.988,2.241l12.786 0c0.436,0 0.872,-0.173 1.205,-0.506 0.202,-0.202 0.352,-0.456 0.435,-0.73 3.901,-12.473 15.578,-20.934 28.62,-20.934 9.071,0 17.2,4.023 22.705,10.382l-8.837 8.837c-0.676,0.675 -0.676,1.769 0,2.445 0.335,0.335 0.774,0.503 1.213,0.506l28.667 0z"/>
  <path fill="black" stroke-width="3" stroke="white" d="M20.956 72.144c-0.442,0 -0.884,0.169 -1.222,0.506 -0.338,0.338 -0.506,0.78 -0.506,1.223l0 28.666c0.002,0.44 0.171,0.878 0.506,1.213 0.675,0.675 1.77,0.675 2.444,0l8.403 -8.401c8.439,9.267 20.601,15.083 34.123,15.083 22.016,0 40.592,-15.385 45.034,-36.049 0.318,-1.48 -0.608,-2.238 -1.989,-2.241l-12.785 0c-0.436,0 -0.872,0.173 -1.205,0.506 -0.202,0.202 -0.353,0.456 -0.435,0.73 -3.901,12.473 -15.579,20.934 -28.62,20.934 -9.071,0 -17.201,-4.023 -22.705,-10.382l8.837 -8.837c0.675,-0.675 0.675,-1.769 0,-2.444 -0.335,-0.336 -0.774,-0.505 -1.213,-0.507l-28.667 0z"/>
</svg>
